<?xml version="1.0"?>
<svg xmlns="http://www.w3.org/2000/svg" version="1.1" style="display: block;background-color:transparent;" viewBox="0 0 2048 2048" width="1024" height="1024" preserveAspectRatio="none">
  <defs>
    <linearGradient id="Gradient1" gradientUnits="userSpaceOnUse" x1="939.275" y1="764.52" x2="587.516" y2="955.263">
      <stop class="stop0" offset="0" stop-opacity="1" stop-color="rgb(236,254,255)"/>
      <stop class="stop1" offset="1" stop-opacity="1" stop-color="rgb(255,254,254)"/>
    </linearGradient>
  </defs>
  <path transform="translate(0,0)" fill="rgb(85,91,110)" d="M 435.92 668.485 C 474.142 649.013 514.796 624.822 552.663 603.888 L 891.036 413.151 C 931.217 390.661 971.037 367.516 1011.48 345.519 C 1014.71 343.768 1022.02 339.66 1025.34 341.151 C 1062.17 357.6 1095.67 380.113 1130.82 399.254 C 1172.28 421.825 1213.27 444.3 1253.93 468.342 C 1287.16 487.447 1321.66 504.333 1353.89 525.146 C 1368.38 534.508 1387.45 541.757 1401.38 550.881 C 1427.47 567.962 1455.41 580.137 1481.95 595.395 C 1515.15 614.483 1547.85 634.862 1581.8 652.768 C 1588.93 656.703 1603.3 666.002 1610.19 668.855 C 1574.02 689.652 1536.24 712.245 1499.96 732.279 L 1491.12 737.211 L 1384.95 797.682 C 1382.34 799.23 1379.75 800.8 1377.17 802.393 C 1341.19 821.619 1303.94 843.647 1268.34 863.909 L 1259.84 868.785 C 1221.41 891.448 1182.62 913.498 1143.48 934.926 C 1120.25 949.044 1090.98 963.915 1069.29 977.61 C 1066.69 981.959 1063.75 981.932 1061.37 985.839 C 1073.45 988.09 1105.64 959.721 1115.94 960.376 C 1108.4 965.509 1075.28 984.423 1067.11 988.042 C 1054.3 996.753 1041.42 1003.37 1027.76 1010.64 C 1027.77 1025 1027.54 1039.16 1027.39 1053.5 C 1027.27 1065.25 1028.32 1076.87 1027.78 1088.77 C 1027.99 1120.11 1027.19 1154.58 1028.23 1185.46 L 1027.66 1189.05 L 1027.4 1189.01 C 1026.32 1185.26 1027.33 1186.71 1024.49 1184.36 C 1021.12 1184.76 1022.58 1184.09 1020.07 1186.63 C 1020.37 1198.25 1020.57 1210.49 1020.3 1222.11 C 1019.52 1255.53 1021.74 1290.46 1019.08 1323.66 L 1019.15 1377.98 C 1020.82 1400.93 1019.57 1432.21 1019.8 1456.05 C 1019.56 1498.19 1020.99 1543.22 1019.17 1584.91 L 1019.7 1709.56 C 1007.07 1701.77 987.686 1691.98 974.249 1684.57 C 950.774 1671.47 927.382 1658.21 904.076 1644.81 L 541.303 1440.18 C 505.097 1419.51 468.557 1400.36 432.531 1378.86 C 430.943 1320.14 432.14 1256.71 432.131 1197.48 L 432.071 879.237 L 432.164 741.218 C 432.149 726.019 433.058 688.251 431.638 674.767 C 432.976 672.486 434.387 670.63 435.92 668.485 z"/>
  <path transform="translate(0,0)" fill="rgb(21,14,48)" d="M 435.92 668.485 C 474.142 649.013 514.796 624.822 552.663 603.888 L 891.036 413.151 C 931.217 390.661 971.037 367.516 1011.48 345.519 C 1014.71 343.768 1022.02 339.66 1025.34 341.151 C 1062.17 357.6 1095.67 380.113 1130.82 399.254 C 1172.28 421.825 1213.27 444.3 1253.93 468.342 C 1287.16 487.447 1321.66 504.333 1353.89 525.146 C 1368.38 534.508 1387.45 541.757 1401.38 550.881 C 1427.47 567.962 1455.41 580.137 1481.95 595.395 C 1515.15 614.483 1547.85 634.862 1581.8 652.768 C 1588.93 656.703 1603.3 666.002 1610.19 668.855 C 1574.02 689.652 1536.24 712.245 1499.96 732.279 L 1491.12 737.211 L 1384.95 797.682 C 1382.34 799.23 1379.75 800.8 1377.17 802.393 C 1341.19 821.619 1303.94 843.647 1268.34 863.909 L 1259.84 868.785 C 1221.41 891.448 1182.62 913.498 1143.48 934.926 C 1120.25 949.044 1090.98 963.915 1069.29 977.61 L 1056.96 984.735 C 1046.13 978.623 1035.35 972.418 1024.62 966.121 C 1013.63 972.565 1001.88 978.818 990.657 984.97 C 963.335 967.902 931.689 951.636 903.494 934.885 C 893.756 930.459 873.319 917.896 863.258 912.041 C 838.148 897.379 812.952 882.864 787.672 868.499 L 779.238 863.483 C 768.35 857.914 754.252 849.354 743.322 843.168 C 718.882 829.463 694.522 815.615 670.244 801.623 C 667.525 800.584 665.033 798.845 662.498 797.306 L 556.253 736.544 C 554.859 735.985 549.21 732.688 547.569 731.779 C 543.299 729.633 539.11 727.042 534.926 724.703 C 501.855 706.217 469.358 686.274 435.92 668.485 z"/>
  <path transform="translate(0,0)" fill="rgb(187,187,190)" d="M 1024.11 606.179 C 1100.11 649.574 1179.43 691.914 1256.09 734.295 L 1342.35 782.601 C 1352.75 788.426 1367.05 797.239 1377.17 802.393 C 1341.19 821.619 1303.94 843.647 1268.34 863.909 L 1259.84 868.785 C 1221.41 891.448 1182.62 913.498 1143.48 934.926 C 1120.25 949.044 1090.98 963.915 1069.29 977.61 L 1056.96 984.735 C 1046.13 978.623 1035.35 972.418 1024.62 966.121 C 1013.63 972.565 1001.88 978.818 990.657 984.97 C 963.335 967.902 931.689 951.636 903.494 934.885 C 893.756 930.459 873.319 917.896 863.258 912.041 C 838.148 897.379 812.952 882.864 787.672 868.499 L 779.238 863.483 C 768.35 857.914 754.252 849.354 743.322 843.168 C 718.882 829.463 694.522 815.615 670.244 801.623 C 702.525 784.773 734.381 766.553 766.308 748.962 L 914.516 667.052 L 986.3 627.075 C 998.345 620.376 1011.97 612.13 1024.11 606.179 z"/>
  <path transform="translate(0,0)" fill="rgb(85,91,110)" d="M 787.672 868.499 C 811.643 853.527 841.959 837.51 866.916 823.844 L 965.027 769.554 C 982.743 759.752 1007.2 747.432 1023.59 736.831 C 1078.44 768.6 1135.69 798.201 1190.84 829.621 C 1213.55 842.559 1237.59 855.206 1259.84 868.785 C 1221.41 891.448 1182.62 913.498 1143.48 934.926 C 1120.25 949.044 1090.98 963.915 1069.29 977.61 L 1056.96 984.735 C 1046.13 978.623 1035.35 972.418 1024.62 966.121 C 1013.63 972.565 1001.88 978.818 990.657 984.97 C 963.335 967.902 931.689 951.636 903.494 934.885 C 893.756 930.459 873.319 917.896 863.258 912.041 C 838.148 897.379 812.952 882.864 787.672 868.499 z"/>
  <path transform="translate(0,0)" fill="rgb(1,202,223)" d="M 1024.35 867.55 C 1063.64 890.377 1103.92 912.105 1143.48 934.926 C 1120.25 949.044 1090.98 963.915 1069.29 977.61 L 1056.96 984.735 C 1046.13 978.623 1035.35 972.418 1024.62 966.121 C 1013.63 972.565 1001.88 978.818 990.657 984.97 C 963.335 967.902 931.689 951.636 903.494 934.885 C 943.275 911.932 984.671 890.766 1024.35 867.55 z"/>
  <path transform="translate(0,0)" fill="rgb(217,217,220)" d="M 1023.63 727.812 L 1178.2 813.234 C 1199.3 824.722 1220.28 836.439 1241.13 848.384 C 1249.27 853.023 1260.93 859.101 1268.34 863.909 L 1259.84 868.785 C 1237.59 855.206 1213.55 842.559 1190.84 829.621 C 1135.69 798.201 1078.44 768.6 1023.59 736.831 C 1007.2 747.432 982.743 759.752 965.027 769.554 L 866.916 823.844 C 841.959 837.51 811.643 853.527 787.672 868.499 L 779.238 863.483 C 827.525 835.395 878.906 808.393 927.788 780.98 C 950.654 768.068 973.636 755.365 996.734 742.873 C 1003.48 739.182 1017.5 730.506 1023.63 727.812 z"/>
  <path transform="translate(0,0)" fill="rgb(85,91,110)" d="M 556.253 736.544 C 667.808 672.897 782.35 612.168 894.047 548.547 C 936.682 524.262 981.975 500.864 1023.84 475.738 L 1343.78 654.236 L 1428.17 701.225 C 1446.55 711.31 1474.31 725.943 1491.12 737.211 L 1384.95 797.682 C 1382.34 799.23 1379.75 800.8 1377.17 802.393 C 1367.05 797.239 1352.75 788.426 1342.35 782.601 L 1256.09 734.295 C 1179.43 691.914 1100.11 649.574 1024.11 606.179 C 1011.97 612.13 998.345 620.376 986.3 627.075 L 914.516 667.052 L 766.308 748.962 C 734.381 766.553 702.525 784.773 670.244 801.623 C 667.525 800.584 665.033 798.845 662.498 797.306 L 556.253 736.544 z"/>
  <path transform="translate(0,0)" fill="rgb(217,217,220)" d="M 1023.56 596.792 C 1051.44 613.103 1083 629.576 1111.6 645.371 L 1285.74 741.778 C 1315.68 758.387 1356.28 779.606 1384.95 797.682 C 1382.34 799.23 1379.75 800.8 1377.17 802.393 C 1367.05 797.239 1352.75 788.426 1342.35 782.601 L 1256.09 734.295 C 1179.43 691.914 1100.11 649.574 1024.11 606.179 C 1011.97 612.13 998.345 620.376 986.3 627.075 L 914.516 667.052 L 766.308 748.962 C 734.381 766.553 702.525 784.773 670.244 801.623 C 667.525 800.584 665.033 798.845 662.498 797.306 L 903.758 663.804 C 942.665 642.267 985.675 619.377 1023.56 596.792 z"/>
  <path transform="translate(0,0)" fill="rgb(187,187,190)" d="M 1024.12 466.614 C 1069.13 492.946 1117.56 518.914 1163.37 544.333 L 1382.8 666.756 C 1419.87 687.48 1464.16 710.6 1499.96 732.279 L 1491.12 737.211 C 1474.31 725.943 1446.55 711.31 1428.17 701.225 L 1343.78 654.236 L 1023.84 475.738 C 981.975 500.864 936.682 524.262 894.047 548.547 C 782.35 612.168 667.808 672.897 556.253 736.544 C 554.859 735.985 549.21 732.688 547.569 731.779 L 815.445 582.986 C 884.381 544.874 956.048 505.981 1024.12 466.614 z"/>
  <path transform="translate(0,0)" fill="rgb(21,14,48)" d="M 431.638 674.767 C 439.879 680.932 453.072 687.293 462.215 692.815 C 486.638 707.567 515.429 721.684 539.271 736.658 L 539.95 1014.98 L 539.944 1316.77 L 866.221 1499.05 L 977.953 1561.77 C 991.021 1569.05 1006.22 1578.18 1019.17 1584.91 L 1019.7 1709.56 C 1007.07 1701.77 987.686 1691.98 974.249 1684.57 C 950.774 1671.47 927.382 1658.21 904.076 1644.81 L 541.303 1440.18 C 505.097 1419.51 468.557 1400.36 432.531 1378.86 C 430.943 1320.14 432.14 1256.71 432.131 1197.48 L 432.071 879.237 L 432.164 741.218 C 432.149 726.019 433.058 688.251 431.638 674.767 z"/>
  <path transform="translate(0,0)" fill="rgb(85,91,110)" d="M 435.92 668.485 C 469.358 686.274 501.855 706.217 534.926 724.703 C 539.11 727.042 543.299 729.633 547.569 731.779 C 549.21 732.688 554.859 735.985 556.253 736.544 L 662.498 797.306 C 665.033 798.845 667.525 800.584 670.244 801.623 C 694.522 815.615 718.882 829.463 743.322 843.168 C 754.252 849.354 768.35 857.914 779.238 863.483 L 787.672 868.499 C 812.952 882.864 838.148 897.379 863.258 912.041 C 873.319 917.896 893.756 930.459 903.494 934.885 C 931.689 951.636 963.335 967.902 990.657 984.97 C 1001.88 978.818 1013.63 972.565 1024.62 966.121 C 1035.35 972.418 1046.13 978.623 1056.96 984.735 L 1069.29 977.61 C 1066.69 981.959 1063.75 981.932 1061.37 985.839 C 1073.45 988.09 1105.64 959.721 1115.94 960.376 C 1108.4 965.509 1075.28 984.423 1067.11 988.042 C 1054.3 996.753 1041.42 1003.37 1027.76 1010.64 C 1027.77 1025 1027.54 1039.16 1027.39 1053.5 C 1027.27 1065.25 1028.32 1076.87 1027.78 1088.77 C 1027.99 1120.11 1027.19 1154.58 1028.23 1185.46 L 1027.66 1189.05 L 1027.4 1189.01 C 1026.32 1185.26 1027.33 1186.71 1024.49 1184.36 C 1021.12 1184.76 1022.58 1184.09 1020.07 1186.63 C 1020.37 1198.25 1020.57 1210.49 1020.3 1222.11 C 1019.52 1255.53 1021.74 1290.46 1019.08 1323.66 C 987.535 1307.61 949.916 1285.47 918.395 1268 L 762.935 1182.21 C 762.058 1160.92 762.628 1135.26 762.626 1113.74 L 762.686 990.087 L 762.347 913.995 C 762.336 901.756 761.788 886.798 762.871 874.955 C 764.904 871.468 768.538 871.358 772.067 868.694 C 737.799 848.605 695.006 823.899 659.945 805.343 C 658.816 804.179 655.398 802.404 653.811 801.485 L 547.815 741.495 C 545.354 739.674 542.05 738.117 539.271 736.658 C 515.429 721.684 486.638 707.567 462.215 692.815 C 453.072 687.293 439.879 680.932 431.638 674.767 C 432.976 672.486 434.387 670.63 435.92 668.485 z"/>
  <path transform="translate(0,0)" fill="rgb(1,202,223)" d="M 435.92 668.485 C 469.358 686.274 501.855 706.217 534.926 724.703 C 539.11 727.042 543.299 729.633 547.569 731.779 C 549.21 732.688 554.859 735.985 556.253 736.544 L 662.498 797.306 C 665.033 798.845 667.525 800.584 670.244 801.623 C 694.522 815.615 718.882 829.463 743.322 843.168 C 754.252 849.354 768.35 857.914 779.238 863.483 L 787.672 868.499 C 812.952 882.864 838.148 897.379 863.258 912.041 C 873.319 917.896 893.756 930.459 903.494 934.885 C 931.689 951.636 963.335 967.902 990.657 984.97 C 1001.88 978.818 1013.63 972.565 1024.62 966.121 C 1035.35 972.418 1046.13 978.623 1056.96 984.735 L 1069.29 977.61 C 1066.69 981.959 1063.75 981.932 1061.37 985.839 C 1073.45 988.09 1105.64 959.721 1115.94 960.376 C 1108.4 965.509 1075.28 984.423 1067.11 988.042 C 1054.3 996.753 1041.42 1003.37 1027.76 1010.64 C 1027.77 1025 1027.54 1039.16 1027.39 1053.5 C 1027.27 1065.25 1028.32 1076.87 1027.78 1088.77 C 1027.99 1120.11 1027.19 1154.58 1028.23 1185.46 L 1027.66 1189.05 L 1027.4 1189.01 C 1026.32 1185.26 1027.33 1186.71 1024.49 1184.36 C 1021.12 1184.76 1022.58 1184.09 1020.07 1186.63 L 1019.3 1186.66 L 1019.11 1186 C 983.175 1167.77 948.171 1146.06 912.623 1127.01 C 905.636 1123.27 899.037 1119.01 891.665 1116.03 C 891.327 1081.57 891.187 1047.11 891.245 1012.64 C 891.2 988.372 890.592 962.468 892.335 938.389 C 879.411 930.041 863.404 921.463 849.816 913.699 L 779.611 873.31 C 776.9 871.466 774.929 870.302 772.067 868.694 C 737.799 848.605 695.006 823.899 659.945 805.343 C 658.816 804.179 655.398 802.404 653.811 801.485 L 547.815 741.495 C 545.354 739.674 542.05 738.117 539.271 736.658 C 515.429 721.684 486.638 707.567 462.215 692.815 C 453.072 687.293 439.879 680.932 431.638 674.767 C 432.976 672.486 434.387 670.63 435.92 668.485 z"/>
  <path transform="translate(0,0)" fill="url(#Gradient1)" d="M 435.92 668.485 C 469.358 686.274 501.855 706.217 534.926 724.703 C 539.11 727.042 543.299 729.633 547.569 731.779 C 549.21 732.688 554.859 735.985 556.253 736.544 L 662.498 797.306 C 665.033 798.845 667.525 800.584 670.244 801.623 C 694.522 815.615 718.882 829.463 743.322 843.168 C 754.252 849.354 768.35 857.914 779.238 863.483 L 787.672 868.499 C 812.952 882.864 838.148 897.379 863.258 912.041 C 873.319 917.896 893.756 930.459 903.494 934.885 C 931.689 951.636 963.335 967.902 990.657 984.97 C 1001.88 978.818 1013.63 972.565 1024.62 966.121 C 1035.35 972.418 1046.13 978.623 1056.96 984.735 L 1069.29 977.61 C 1066.69 981.959 1063.75 981.932 1061.37 985.839 C 1073.45 988.09 1105.64 959.721 1115.94 960.376 C 1108.4 965.509 1075.28 984.423 1067.11 988.042 C 1054.3 996.753 1041.42 1003.37 1027.76 1010.64 C 1027.77 1025 1027.54 1039.16 1027.39 1053.5 C 1027.27 1065.25 1028.32 1076.87 1027.78 1088.77 C 1023.36 1087.98 1023.17 1087.98 1019.52 1085.5 C 1019.97 1060.73 1019.12 1035.25 1019.02 1010.35 C 1005.3 1002.94 993.162 996.572 979.874 988.072 C 951.059 972.739 921.152 954.432 892.335 938.389 C 879.411 930.041 863.404 921.463 849.816 913.699 L 779.611 873.31 C 776.9 871.466 774.929 870.302 772.067 868.694 C 737.799 848.605 695.006 823.899 659.945 805.343 C 658.816 804.179 655.398 802.404 653.811 801.485 L 547.815 741.495 C 545.354 739.674 542.05 738.117 539.271 736.658 C 515.429 721.684 486.638 707.567 462.215 692.815 C 453.072 687.293 439.879 680.932 431.638 674.767 C 432.976 672.486 434.387 670.63 435.92 668.485 z"/>
  <path transform="translate(0,0)" fill="rgb(191,241,246)" d="M 1024.62 966.121 C 1035.35 972.418 1046.13 978.623 1056.96 984.735 C 1045.44 990.637 1035.15 998.294 1023.5 1004.1 C 1013.1 998.771 1002.5 991.117 990.657 984.97 C 1001.88 978.818 1013.63 972.565 1024.62 966.121 z"/>
  <path transform="translate(0,0)" fill="rgb(191,241,246)" d="M 979.874 988.072 C 993.162 996.572 1005.3 1002.94 1019.02 1010.35 C 1019.12 1035.25 1019.97 1060.73 1019.52 1085.5 L 1019.12 1088.2 C 1006.55 1081.79 991.419 1072.35 978.296 1065.24 C 978.248 1051.05 977.036 998.462 979.874 988.072 z"/>
  <path transform="translate(0,0)" fill="rgb(191,241,246)" d="M 1019.52 1085.5 C 1023.17 1087.98 1023.36 1087.98 1027.78 1088.77 C 1027.99 1120.11 1027.19 1154.58 1028.23 1185.46 L 1027.66 1189.05 L 1027.4 1189.01 C 1026.32 1185.26 1027.33 1186.71 1024.49 1184.36 C 1021.12 1184.76 1022.58 1184.09 1020.07 1186.63 L 1019.3 1186.66 L 1019.11 1186 C 1020.12 1155.37 1019.34 1119.07 1019.12 1088.2 L 1019.52 1085.5 z"/>
  <path transform="translate(0,0)" fill="rgb(217,217,220)" d="M 772.067 868.694 C 774.929 870.302 776.9 871.466 779.611 873.31 L 770.81 878.774 L 771.043 1177.43 L 1019.06 1314.45 L 1019.3 1186.66 L 1020.07 1186.63 C 1020.37 1198.25 1020.57 1210.49 1020.3 1222.11 C 1019.52 1255.53 1021.74 1290.46 1019.08 1323.66 C 987.535 1307.61 949.916 1285.47 918.395 1268 L 762.935 1182.21 C 762.058 1160.92 762.628 1135.26 762.626 1113.74 L 762.686 990.087 L 762.347 913.995 C 762.336 901.756 761.788 886.798 762.871 874.955 C 764.904 871.468 768.538 871.358 772.067 868.694 z"/>
  <path transform="translate(0,0)" fill="rgb(187,187,190)" d="M 653.811 801.485 C 655.398 802.404 658.816 804.179 659.945 805.343 C 695.006 823.899 737.799 848.605 772.067 868.694 C 768.538 871.358 764.904 871.468 762.871 874.955 C 761.788 886.798 762.336 901.756 762.347 913.995 L 762.686 990.087 L 762.626 1113.74 C 762.628 1135.26 762.058 1160.92 762.935 1182.21 L 918.395 1268 C 949.916 1285.47 987.535 1307.61 1019.08 1323.66 L 1019.15 1377.98 C 1020.82 1400.93 1019.57 1432.21 1019.8 1456.05 L 1019.13 1456.18 C 1010.35 1449.88 986.816 1437.45 976.425 1431.62 L 889.114 1382.86 L 734.4 1297.09 C 706.885 1281.88 678.616 1265.62 650.823 1251.17 L 650.798 947.052 L 650.58 853.988 C 650.516 838.767 650.421 823.255 650.419 808.012 C 650.419 804.398 651.568 803.96 653.811 801.485 z"/>
  <path transform="translate(0,0)" fill="rgb(217,217,220)" d="M 653.811 801.485 C 655.398 802.404 658.816 804.179 659.945 805.343 C 658.306 810.245 658.902 860.18 658.89 868.651 L 658.952 1042.88 L 658.933 1173.8 C 658.941 1196.84 658.416 1222.82 659.354 1245.68 C 686.147 1261.63 714.619 1276.69 741.958 1291.95 L 916.629 1388.9 C 945.686 1405 992.676 1429.04 1019.01 1446.44 C 1018.9 1427.75 1017.74 1395.81 1019.15 1377.98 C 1020.82 1400.93 1019.57 1432.21 1019.8 1456.05 L 1019.13 1456.18 C 1010.35 1449.88 986.816 1437.45 976.425 1431.62 L 889.114 1382.86 L 734.4 1297.09 C 706.885 1281.88 678.616 1265.62 650.823 1251.17 L 650.798 947.052 L 650.58 853.988 C 650.516 838.767 650.421 823.255 650.419 808.012 C 650.419 804.398 651.568 803.96 653.811 801.485 z"/>
  <path transform="translate(0,0)" fill="rgb(187,187,190)" d="M 539.271 736.658 C 542.05 738.117 545.354 739.674 547.815 741.495 L 547.659 1102.55 C 547.295 1172.17 547.376 1241.79 547.902 1311.4 C 582.598 1332.11 618.221 1351.61 653.646 1371.04 C 775.771 1438.03 896.453 1508.48 1018.88 1574.84 C 1018.91 1536.86 1017.8 1493.68 1019.13 1456.18 L 1019.8 1456.05 C 1019.56 1498.19 1020.99 1543.22 1019.17 1584.91 C 1006.22 1578.18 991.021 1569.05 977.953 1561.77 L 866.221 1499.05 L 539.944 1316.77 L 539.95 1014.98 L 539.271 736.658 z"/>
  <path transform="translate(0,0)" fill="rgb(21,14,48)" d="M 1615.02 675.555 C 1613.02 700.159 1614.45 745.8 1614.54 771.796 L 1614.94 953.687 L 1614.65 1226.85 C 1614.53 1276.58 1613.2 1330.07 1614.83 1379.36 C 1601.45 1386.13 1585.2 1396.31 1571.57 1403.88 L 1440.44 1477.91 L 1027.87 1710.09 L 1028.02 1584.79 L 1027.96 1575.58 C 1027.74 1536.21 1027.13 1494.53 1027.85 1455.27 C 1026.33 1437.05 1027.25 1410.29 1027.06 1391.55 C 1026.92 1378.13 1026.46 1350.99 1027.87 1338.63 L 1028.02 1322.74 C 1026.2 1307.3 1026.76 1279.44 1026.87 1262.96 C 1027.02 1239.32 1026.3 1212.4 1027.4 1189.01 L 1027.66 1189.05 L 1028.23 1185.46 C 1027.19 1154.58 1027.99 1120.11 1027.78 1088.77 C 1028.32 1076.87 1027.27 1065.25 1027.39 1053.5 C 1027.54 1039.16 1027.77 1025 1027.76 1010.64 C 1041.42 1003.37 1054.3 996.753 1067.11 988.042 C 1075.28 984.423 1108.4 965.509 1115.94 960.376 C 1121.19 958.38 1147.2 942.807 1153.71 939.04 C 1172.13 927.651 1194.64 916.008 1213.64 904.96 C 1229.92 895.491 1252.26 881.582 1268.65 873.508 C 1270.73 871.801 1273.6 870.099 1275.94 868.59 C 1312.9 848.313 1350.08 825.846 1386.99 806.218 C 1388.69 804.859 1391.37 803.313 1393.28 802.112 C 1428.7 782.559 1463.52 761.682 1498.91 742.172 L 1507.33 737.149 C 1515.77 731.529 1529.74 724.673 1538.89 719.274 C 1563.67 704.638 1590.66 690.648 1615.02 675.555 z"/>
  <path transform="translate(0,0)" fill="rgb(187,187,190)" d="M 1386.99 806.218 C 1388.69 804.859 1391.37 803.313 1393.28 802.112 C 1395.1 804.401 1396.24 805.806 1396.39 808.825 C 1397.11 823.326 1396.86 838.322 1396.85 852.833 L 1396.74 933.594 L 1396.74 1143.61 C 1396.75 1177.89 1395.82 1216.63 1396.86 1250.6 L 1130.72 1398.27 C 1099.08 1415.64 1059.26 1439.72 1027.85 1455.27 C 1026.33 1437.05 1027.25 1410.29 1027.06 1391.55 C 1026.92 1378.13 1026.46 1350.99 1027.87 1338.63 L 1028.02 1322.74 C 1026.2 1307.3 1026.76 1279.44 1026.87 1262.96 C 1027.02 1239.32 1026.3 1212.4 1027.4 1189.01 L 1027.66 1189.05 L 1028.23 1185.46 C 1027.19 1154.58 1027.99 1120.11 1027.78 1088.77 C 1028.32 1076.87 1027.27 1065.25 1027.39 1053.5 C 1027.54 1039.16 1027.77 1025 1027.76 1010.64 C 1041.42 1003.37 1054.3 996.753 1067.11 988.042 C 1075.28 984.423 1108.4 965.509 1115.94 960.376 C 1121.19 958.38 1147.2 942.807 1153.71 939.04 C 1172.13 927.651 1194.64 916.008 1213.64 904.96 C 1229.92 895.491 1252.26 881.582 1268.65 873.508 C 1270.73 871.801 1273.6 870.099 1275.94 868.59 C 1312.9 848.313 1350.08 825.846 1386.99 806.218 z"/>
  <path transform="translate(0,0)" fill="rgb(85,91,110)" d="M 1268.65 873.508 C 1270.73 871.801 1273.6 870.099 1275.94 868.59 C 1278.65 870.23 1282.43 872.348 1284.97 874.068 C 1284.13 976.509 1284.06 1078.95 1284.75 1181.4 C 1268.42 1191.91 1242.36 1205.26 1224.6 1215.12 L 1112.37 1277.37 L 1057.72 1307.44 C 1050.4 1311.47 1035.05 1320.56 1028.02 1322.74 C 1026.2 1307.3 1026.76 1279.44 1026.87 1262.96 C 1027.02 1239.32 1026.3 1212.4 1027.4 1189.01 L 1027.66 1189.05 L 1028.23 1185.46 C 1027.19 1154.58 1027.99 1120.11 1027.78 1088.77 C 1028.32 1076.87 1027.27 1065.25 1027.39 1053.5 C 1027.54 1039.16 1027.77 1025 1027.76 1010.64 C 1041.42 1003.37 1054.3 996.753 1067.11 988.042 C 1075.28 984.423 1108.4 965.509 1115.94 960.376 C 1121.19 958.38 1147.2 942.807 1153.71 939.04 C 1172.13 927.651 1194.64 916.008 1213.64 904.96 C 1229.92 895.491 1252.26 881.582 1268.65 873.508 z"/>
  <path transform="translate(0,0)" fill="rgb(1,202,223)" d="M 1153.71 939.04 C 1157.11 942.864 1156.18 953.84 1156.3 959.181 C 1157.46 1010.85 1154.7 1063.59 1156.22 1115.15 C 1125.35 1132.89 1094.32 1150.37 1063.15 1167.58 C 1057.01 1170.94 1033.4 1184.04 1028.23 1185.46 C 1027.19 1154.58 1027.99 1120.11 1027.78 1088.77 C 1028.32 1076.87 1027.27 1065.25 1027.39 1053.5 C 1027.54 1039.16 1027.77 1025 1027.76 1010.64 C 1041.42 1003.37 1054.3 996.753 1067.11 988.042 C 1075.28 984.423 1108.4 965.509 1115.94 960.376 C 1121.19 958.38 1147.2 942.807 1153.71 939.04 z"/>
  <path transform="translate(0,0)" fill="rgb(191,241,246)" d="M 1027.76 1010.64 C 1041.42 1003.37 1054.3 996.753 1067.11 988.042 C 1070.09 1000.28 1067.04 1047.57 1069.13 1066.07 C 1056.91 1072.58 1039.36 1081.39 1027.78 1088.77 C 1028.32 1076.87 1027.27 1065.25 1027.39 1053.5 C 1027.54 1039.16 1027.77 1025 1027.76 1010.64 z"/>
  <path transform="translate(0,0)" fill="rgb(217,217,220)" d="M 1268.65 873.508 C 1270.73 871.801 1273.6 870.099 1275.94 868.59 C 1278.65 870.23 1282.43 872.348 1284.97 874.068 C 1284.13 976.509 1284.06 1078.95 1284.75 1181.4 C 1268.42 1191.91 1242.36 1205.26 1224.6 1215.12 L 1112.37 1277.37 L 1057.72 1307.44 C 1050.4 1311.47 1035.05 1320.56 1028.02 1322.74 C 1026.2 1307.3 1026.76 1279.44 1026.87 1262.96 C 1027.02 1239.32 1026.3 1212.4 1027.4 1189.01 L 1027.66 1189.05 C 1028.67 1198.12 1028.04 1222.17 1028.02 1232.08 L 1027.98 1314.39 C 1110.01 1270.66 1195.11 1222.38 1276.36 1176.97 C 1275.23 1101.24 1276.8 1025.09 1276.28 949.32 C 1276.12 926.084 1276.24 902.379 1276.87 879.169 C 1273.92 876.699 1271.94 875.546 1268.65 873.508 z"/>
  <path transform="translate(0,0)" fill="rgb(217,217,220)" d="M 1386.99 806.218 C 1388.69 804.859 1391.37 803.313 1393.28 802.112 C 1395.1 804.401 1396.24 805.806 1396.39 808.825 C 1397.11 823.326 1396.86 838.322 1396.85 852.833 L 1396.74 933.594 L 1396.74 1143.61 C 1396.75 1177.89 1395.82 1216.63 1396.86 1250.6 L 1130.72 1398.27 C 1099.08 1415.64 1059.26 1439.72 1027.85 1455.27 C 1026.33 1437.05 1027.25 1410.29 1027.06 1391.55 C 1026.92 1378.13 1026.46 1350.99 1027.87 1338.63 C 1028.7 1348.06 1028.18 1366.17 1028.16 1376.28 L 1028.03 1446.09 C 1038.28 1439.69 1052.06 1432.54 1062.8 1426.57 L 1136.67 1385.76 L 1388.2 1245.96 C 1390.04 1178.11 1388.25 1102.29 1388.23 1033.77 L 1388.24 892.983 C 1388.27 881.027 1389.48 810.612 1386.99 806.218 z"/>
  <path transform="translate(0,0)" fill="rgb(85,91,110)" d="M 1498.91 742.172 C 1500.47 760.912 1499.83 792.813 1499.89 812.404 L 1499.85 951.375 L 1499.82 1188.05 C 1499.78 1228.84 1500.32 1271.15 1499.53 1311.77 L 1143.49 1510.95 C 1104.84 1532.24 1066.33 1553.78 1027.96 1575.58 C 1027.74 1536.21 1027.13 1494.53 1027.85 1455.27 C 1059.26 1439.72 1099.08 1415.64 1130.72 1398.27 L 1396.86 1250.6 C 1395.82 1216.63 1396.75 1177.89 1396.74 1143.61 L 1396.74 933.594 L 1396.85 852.833 C 1396.86 838.322 1397.11 823.326 1396.39 808.825 C 1396.24 805.806 1395.1 804.401 1393.28 802.112 C 1428.7 782.559 1463.52 761.682 1498.91 742.172 z"/>
  <path transform="translate(0,0)" fill="rgb(187,187,190)" d="M 1498.91 742.172 L 1507.33 737.149 C 1508.83 781.365 1507.46 831.821 1507.49 876.602 L 1507.51 1166 L 1507.48 1258.83 C 1507.41 1276.39 1506.56 1299.94 1507.85 1317 C 1470.02 1336.84 1431.06 1359.9 1393.49 1380.79 L 1157.1 1512.69 C 1114.44 1536.55 1070.94 1561.53 1028.02 1584.79 L 1027.96 1575.58 C 1066.33 1553.78 1104.84 1532.24 1143.49 1510.95 L 1499.53 1311.77 C 1500.32 1271.15 1499.78 1228.84 1499.82 1188.05 L 1499.85 951.375 L 1499.89 812.404 C 1499.83 792.813 1500.47 760.912 1498.91 742.172 z"/>
  <path transform="translate(0,0)" fill="rgb(251,254,254)" d="M 1610.19 668.855 C 1613.35 671.612 1613.77 671.728 1615.02 675.555 C 1590.66 690.648 1563.67 704.638 1538.89 719.274 C 1529.74 724.673 1515.77 731.529 1507.33 737.149 L 1498.91 742.172 C 1463.52 761.682 1428.7 782.559 1393.28 802.112 C 1391.37 803.313 1388.69 804.859 1386.99 806.218 C 1350.08 825.846 1312.9 848.313 1275.94 868.59 C 1273.6 870.099 1270.73 871.801 1268.65 873.508 C 1252.26 881.582 1229.92 895.491 1213.64 904.96 C 1194.64 916.008 1172.13 927.651 1153.71 939.04 C 1147.2 942.807 1121.19 958.38 1115.94 960.376 C 1105.64 959.721 1073.45 988.09 1061.37 985.839 C 1063.75 981.932 1066.69 981.959 1069.29 977.61 C 1090.98 963.915 1120.25 949.044 1143.48 934.926 C 1182.62 913.498 1221.41 891.448 1259.84 868.785 L 1268.34 863.909 C 1303.94 843.647 1341.19 821.619 1377.17 802.393 C 1379.75 800.8 1382.34 799.23 1384.95 797.682 L 1491.12 737.211 L 1499.96 732.279 C 1536.24 712.245 1574.02 689.652 1610.19 668.855 z"/>
  <path transform="translate(0,0)" fill="rgb(251,254,254)" d="M 1020.07 1186.63 C 1022.58 1184.09 1021.12 1184.76 1024.49 1184.36 C 1027.33 1186.71 1026.32 1185.26 1027.4 1189.01 C 1026.3 1212.4 1027.02 1239.32 1026.87 1262.96 C 1026.76 1279.44 1026.2 1307.3 1028.02 1322.74 L 1027.87 1338.63 C 1026.46 1350.99 1026.92 1378.13 1027.06 1391.55 C 1027.25 1410.29 1026.33 1437.05 1027.85 1455.27 C 1027.13 1494.53 1027.74 1536.21 1027.96 1575.58 L 1028.02 1584.79 L 1027.87 1710.09 C 1024.95 1710.33 1022.59 1709.91 1019.7 1709.56 L 1019.17 1584.91 C 1020.99 1543.22 1019.56 1498.19 1019.8 1456.05 C 1019.57 1432.21 1020.82 1400.93 1019.15 1377.98 L 1019.08 1323.66 C 1021.74 1290.46 1019.52 1255.53 1020.3 1222.11 C 1020.57 1210.49 1020.37 1198.25 1020.07 1186.63 z"/>
  <path transform="translate(0,0)" fill="rgb(2,2,2)" fill-opacity="0.0117647" d="M 759.435 475.991 C 759.299 479.425 759.01 479.624 757.726 482.721 L 756.003 483.348 L 753.908 483.077 C 754.237 480.354 757.1 478.365 759.435 475.991 z"/>
</svg>
